Coordinates
version=1
nRows=29
nColumns=24
inDegrees=yes

Units are S.I. units (second, meters, Newtons, ...)
Angles are in degrees.

endheader
time	pelvis_tilt	pelvis_list	pelvis_rotation	pelvis_tx	pelvis_ty	pelvis_tz	hip_flexion_r	hip_adduction_r	hip_rotation_r	knee_angle_r	ankle_angle_r	subtalar_angle_r	mtp_angle_r	hip_flexion_l	hip_adduction_l	hip_rotation_l	knee_angle_l	ankle_angle_l	subtalar_angle_l	mtp_angle_l	lumbar_extension	lumbar_bending	lumbar_rotation
      5.85000000	     -3.14902677	     -0.37729033	     -1.83474525	      1.37410739	      1.03218909	     -0.25909033	     -2.35461835	      5.45056830	     12.81323859	     -6.58881976	     14.35273441	    -14.99639561	      0.00000000	     29.51939932	     -4.35490393	    -14.05834558	    -49.06257968	      8.95459382	     -2.21254558	      0.00000000	    -10.84635846	     -1.08701603	      3.36980015
      5.85500000	     -3.07291395	     -0.28530600	     -2.04548447	      1.38031206	      1.03206522	     -0.25914587	     -2.96443489	      5.28728677	     13.15561172	     -6.27619219	     14.27537389	    -15.21189598	      0.00000000	     29.50100573	     -4.18137068	    -14.14940257	    -47.36388644	      9.22728408	     -1.94338482	      0.00000000	    -10.97522749	     -1.24816136	      3.68740004
      5.86000000	     -3.18289037	     -0.29846994	     -2.11701401	      1.38650219	      1.03156258	     -0.25936640	     -3.33838476	      5.25568882	     13.18285434	     -6.03626541	     14.27857896	    -15.25555735	      0.00000000	     29.70586522	     -4.04834640	    -14.02345346	    -45.67411836	      9.48865912	     -1.61640536	      0.00000000	    -10.88298422	     -1.26709749	      3.86795202
      5.86500000	     -3.11030527	     -0.22844635	     -2.30729960	      1.39281250	      1.03131143	     -0.25947849	     -3.92805094	      5.10973439	     13.48426523	     -5.77022871	     14.25091630	    -15.41584753	      0.00000000	     29.62248546	     -3.87512137	    -14.06480874	    -43.84459611	      9.65354021	     -1.47092736	      0.00000000	    -10.99306002	     -1.39921449	      4.15380667
      5.87000000	     -3.08712730	     -0.21964436	     -2.42200308	      1.39911508	      1.03091389	     -0.25969924	     -4.44957938	      5.03529605	     13.64838670	     -5.53376317	     14.22317301	    -15.52858237	      0.00000000	     29.58634580	     -3.72156362	    -13.96404670	    -41.98965814	      9.78916727	     -1.27464728	      0.00000000	    -11.05306934	     -1.44702348	      4.38218805
      5.87500000	     -3.09693874	     -0.22943759	     -2.54610893	      1.40546265	      1.03041145	     -0.25992809	     -4.92365126	      4.97882000	     13.79749996	     -5.33046666	     14.23702643	    -15.58348437	      0.00000000	     29.54837185	     -3.58702954	    -13.84547575	    -40.07562147	      9.87555059	     -1.12766638	      0.00000000	    -11.06513872	     -1.47181120	      4.61693297
      5.88000000	     -3.11814592	     -0.25481556	     -2.65997341	      1.41186703	      1.02983236	     -0.26018647	     -5.38211361	      4.93735105	     13.92581466	     -5.14276310	     14.26899426	    -15.60995713	      0.00000000	     29.48780487	     -3.45858408	    -13.68805113	    -38.10652257	      9.92334247	     -1.00595518	      0.00000000	    -11.05809918	     -1.47226531	      4.84202242
      5.88500000	     -3.16115464	     -0.29088237	     -2.76949027	      1.41830446	      1.02918342	     -0.26049498	     -5.81242345	      4.90137431	     14.06278012	     -4.97386176	     14.31510480	    -15.59537366	      0.00000000	     29.41626479	     -3.33273634	    -13.48179639	    -36.08362413	      9.90075419	     -0.88888358	      0.00000000	    -11.02647430	     -1.44949907	      5.05902044
      5.89000000	     -3.28505157	     -0.47285792	     -2.86413747	      1.42464066	      1.02830364	     -0.26076721	     -6.13180117	      5.03730164	     14.13589737	     -4.85742016	     14.35280630	    -15.56069612	      0.00000000	     29.44007504	     -3.35581416	    -13.15857717	    -34.08703150	      9.91326701	     -0.72733891	      0.00000000	    -10.91331359	     -1.26262119	      5.31752160
      5.89500000	     -3.04148089	     -0.40070724	     -3.03485224	      1.43127921	      1.02803189	     -0.26105490	     -6.87407267	      4.85170153	     14.30757643	     -4.68582153	     14.42865865	    -15.51114937	      0.00000000	     28.92761152	     -3.12376032	    -13.01627902	    -31.85672701	      9.73027321	     -0.74195005	      0.00000000	    -11.20890648	     -1.39627544	      5.57005219
      5.90000000	     -3.13602819	     -0.52550006	     -3.15119971	      1.43779286	      1.02714093	     -0.26140646	     -7.23098022	      4.90442371	     14.45728197	     -4.58150574	     14.50454129	    -15.43985017	      0.00000000	     28.82045740	     -3.08103295	    -12.67024202	    -29.71075090	      9.56093386	     -0.74645509	      0.00000000	    -11.10729556	     -1.26797682	      5.79040677
      5.90500000	     -3.01364817	     -0.56561663	     -3.27730453	      1.44448615	      1.02655009	     -0.26179207	     -7.83377820	      4.84468944	     14.52473101	     -4.44856625	     14.59788021	    -15.30711031	      0.00000000	     28.40980400	     -2.95125493	    -12.37617109	    -27.46892116	      9.35514523	     -0.71081132	      0.00000000	    -11.25351997	     -1.24591906	      6.03200437
      5.91000000	     -2.99909106	     -0.67513426	     -3.40628928	      1.45115874	      1.02574522	     -0.26219253	     -8.30892562	      4.86290501	     14.62882467	     -4.35459957	     14.69129357	    -15.16199922	      0.00000000	     28.10635897	     -2.89718340	    -12.00783165	    -25.23323281	      9.09919188	     -0.73666950	      0.00000000	    -11.27228487	     -1.13548145	      6.27449457
      5.91500000	     -3.01843618	     -0.82047058	     -3.55133974	      1.45787899	      1.02484806	     -0.26259711	     -8.74204172	      4.91813604	     14.72016267	     -4.28143268	     14.77234762	    -15.00372860	      0.00000000	     27.81658330	     -2.89061754	    -11.62272095	    -22.98896722	      8.81090177	     -0.82454392	      0.00000000	    -11.24200950	     -0.97907336	      6.54389813
      5.92000000	     -2.93316456	     -0.92097294	     -3.67235111	      1.46468099	      1.02406821	     -0.26305962	     -9.28726808	      4.91384171	     14.78484692	     -4.21555842	     14.90861515	    -14.76989860	      0.00000000	     27.38074786	     -2.82794538	    -11.17828693	    -20.71545495	      8.46166580	     -0.87713068	      0.00000000	    -11.33696005	     -0.87882250	      6.76834750
      5.92500000	     -2.92369767	     -1.08072594	     -3.82676772	      1.47153514	      1.02314299	     -0.26349017	     -9.74374371	      4.97459061	     14.85677396	     -4.17728457	     14.99995711	    -14.55145526	      0.00000000	     27.01299121	     -2.84980290	    -10.73715834	    -18.46612575	      8.10424560	     -1.02161377	      0.00000000	    -11.33012273	     -0.70635307	      7.04417384
      5.93000000	     -2.85854863	     -1.21773692	     -3.95580156	      1.47844251	      1.02226126	     -0.26397378	    -10.25259733	      5.00493878	     14.91398278	     -4.16285005	     15.14273352	    -14.26879807	      0.00000000	     26.56532537	     -2.84140175	    -10.21517631	    -16.22249633	      7.68198386	     -1.17541233	      0.00000000	    -11.39042375	     -0.56086628	      7.27978135
      5.93500000	     -2.76814128	     -1.38253193	     -4.09240757	      1.48544773	      1.02137051	     -0.26447099	    -10.78636669	      5.05787608	     14.94390368	     -4.16670493	     15.29048517	    -13.93438298	      0.00000000	     26.07137132	     -2.86921151	     -9.67294333	    -14.00682200	      7.26593633	     -1.39424965	      0.00000000	    -11.46772890	     -0.37960595	      7.51208608
      5.94000000	     -2.75865162	     -1.56028578	     -4.26403208	      1.49247934	      1.02037076	     -0.26487534	    -11.21283800	      5.13267902	     14.98091624	     -4.21555624	     15.40127087	    -13.63247883	      0.00000000	     25.65063716	     -2.94447395	     -9.12531102	    -11.83814378	      6.77186304	     -1.68328246	      0.00000000	    -11.44487549	     -0.19441504	      7.80794763
      5.94500000	     -2.68059520	     -1.73036035	     -4.39582313	      1.49957573	      1.01942447	     -0.26535416	    -11.70209442	      5.19367850	     14.98382514	     -4.29876154	     15.57589790	    -13.23579659	      0.00000000	     25.14271802	     -3.00128909	     -8.46286744	     -9.71547230	      6.23500235	     -2.01947932	      0.00000000	    -11.50386061	     -0.01314110	      8.03770724
      5.95000000	     -2.63288307	     -1.93457551	     -4.56188984	      1.50673750	      1.01843549	     -0.26574965	    -12.14489739	      5.29083622	     14.98126308	     -4.42155702	     15.71631860	    -12.82380522	      0.00000000	     24.65795619	     -3.12561069	     -7.84241562	     -7.66898555	      5.68386800	     -2.40384522	      0.00000000	    -11.51930043	      0.19900153	      8.31020568
      5.95500000	     -2.56929451	     -2.13385644	     -4.70946750	      1.51392455	      1.01745139	     -0.26613884	    -12.58735506	      5.38475307	     14.94580279	     -4.58298908	     15.89325898	    -12.35629583	      0.00000000	     24.15673068	     -3.25634076	     -7.14662472	     -5.71400379	      5.08313475	     -2.82336700	      0.00000000	    -11.55985383	      0.40390561	      8.54899386
      5.96000000	     -2.51326498	     -2.34651477	     -4.85910661	      1.52114667	      1.01646340	     -0.26647479	    -13.00152986	      5.49554818	     14.89670732	     -4.79341567	     16.07076553	    -11.84853478	      0.00000000	     23.67460680	     -3.42328189	     -6.46681821	     -3.88054265	      4.47227130	     -3.24852728	      0.00000000	    -11.58724981	      0.61466542	      8.78608449
      5.96500000	     -2.46010338	     -2.56059596	     -4.99519955	      1.52836801	      1.01547865	     -0.26678281	    -13.38779337	      5.61337075	     14.82261359	     -5.05581641	     16.26561547	    -11.29813171	      0.00000000	     23.21698481	     -3.60879542	     -5.78197440	     -2.18948508	      3.85914184	     -3.65205615	      0.00000000	    -11.61999997	      0.82101538	      9.00394625
      5.97000000	     -2.41343502	     -2.77310642	     -5.11648701	      1.53558958	      1.01450296	     -0.26707029	    -13.74270486	      5.73481293	     14.72167911	     -5.36748754	     16.47194284	    -10.70443613	      0.00000000	     22.79739858	     -3.80675942	     -5.12378053	     -0.66468871	      3.27036309	     -4.01023414	      0.00000000	    -11.65244036	      1.02050615	      9.20834434
      5.97500000	     -2.38447854	     -2.98366918	     -5.25129539	      1.54285449	      1.01354359	     -0.26733398	    -14.05675482	      5.85231119	     14.60448957	     -5.72495588	     16.65895969	    -10.07537926	      0.00000000	     22.42703106	     -4.01847940	     -4.57326514	      0.67924237	      2.75998728	     -4.30976850	      0.00000000	    -11.65849743	      1.22037735	      9.39745496
      5.98000000	     -2.35359348	     -3.17580228	     -5.35838357	      1.55010682	      1.01261327	     -0.26761957	    -14.34379474	      5.95625679	     14.44407049	     -6.13420208	     16.86640369	     -9.39545585	      0.00000000	     22.10228250	     -4.21171880	     -4.06338287	      1.81600810	      2.32439538	     -4.52897017	      0.00000000	    -11.67621041	      1.39636591	      9.56058708
      5.98500000	     -2.32742294	     -3.34432464	     -5.45797671	      1.55738361	      1.01172082	     -0.26793963	    -14.60034703	      6.03388331	     14.25544955	     -6.58869895	     17.07059191	     -8.67043513	      0.00000000	     21.83385470	     -4.37804907	     -3.66382370	      2.72623576	      2.00438205	     -4.66074547	      0.00000000	    -11.68807233	      1.55040665	      9.69793220
      5.99000000	     -2.31024748	     -3.52447117	     -5.55021274	      1.56453537	      1.01087945	     -0.26825625	    -14.81831081	      6.12870197	     14.15794883	     -7.08965519	     17.20114620	     -8.04077830	      0.00000000	     21.65654138	     -4.55541746	     -3.39557351	      3.35586412	      1.83556755	     -4.60295603	      0.00000000	    -11.72624073	      1.71603648	      9.84683144
